<?xml version="1.0" encoding="utf-8"?>
<!-- Generator: Adobe Illustrator 21.1.0, SVG Export Plug-In . SVG Version: 6.00 Build 0)  -->
<svg version="1.1" id="Layer_1" xmlns="http://www.w3.org/2000/svg" xmlns:xlink="http://www.w3.org/1999/xlink" x="0px" y="0px"
	 viewBox="0 0 403.7 106.1" style="enable-background:new 0 0 403.7 106.1;" xml:space="preserve">
<style type="text/css">
	.st0{fill:#F4F495;}
	.st1{fill:#7050A1;}
	.st2{fill:#C36CC4;}
	.st3{fill:#FFA896;}
	.st4{fill:#E7B9E2;}
	.st5{fill:#653A8E;}
	.st6{fill:#B04EAD;}
	.st7{fill:#E77985;}
	.st8{fill:#3D3D5E;}
	.st9{fill:#D8D2C0;}
</style>
<g>
	<polyline class="st0" points="70.9,58.8 85.7,58.8 78.3,44.2 70.9,58.8 	"/>
	<polyline class="st1" points="106.5,80.4 117,91.2 78.3,14.8 39.6,91.2 50,80.4 78.3,24.6 106.5,80.4 	"/>
	<polyline class="st2" points="78.3,24.6 50,80.4 60.4,69.6 78.3,34.4 96.1,69.6 106.5,80.4 78.3,24.6 	"/>
	<polyline class="st3" points="60.4,69.6 70.9,58.8 70.9,58.8 78.3,44.2 85.7,58.8 85.7,58.8 96.1,69.6 78.3,34.4 60.4,69.6 	"/>
	<polyline class="st4" points="70.9,58.8 70.9,58.8 60.4,69.6 50,80.4 39.6,91.2 70.9,58.8 	"/>
	<polyline class="st5" points="78.3,14.8 39.6,91.2 50,80.4 78.3,24.6 78.3,24.6 78.3,14.8 	"/>
	<polyline class="st6" points="78.3,24.6 50,80.4 60.4,69.6 78.3,34.4 78.3,34.4 78.3,24.6 78.3,24.6 	"/>
	<polyline class="st7" points="78.3,34.4 60.4,69.6 70.9,58.8 70.9,58.8 78.3,44.2 78.3,34.4 78.3,34.4 	"/>
	<polygon class="st8" points="78.3,14.8 78.3,14.8 0.9,14.8 39.6,91.2 78.3,14.8 117,91.2 155.7,14.8 	"/>
</g>
<g>
	<path class="st9" d="M206.7,66.5l10.6-32.1c0.2-0.8,0.6-1.2,1.5-1.2s1.6,0.6,1.6,1.6c0,0.2-0.1,0.5-0.1,0.7l-12.1,36.2
		c-0.2,0.6-0.6,1.1-1.6,1.1c-0.9,0-1.3-0.4-1.6-1.1l-10.9-32.2l-10.9,32.2c-0.2,0.7-0.7,1.1-1.6,1.1c-0.9,0-1.3-0.5-1.6-1.1
		l-12.1-36.2c-0.1-0.2-0.1-0.5-0.1-0.7c0-1,0.8-1.6,1.6-1.6c0.9,0,1.3,0.5,1.5,1.2l10.6,32.1l10.9-32.1c0.2-0.8,0.8-1.2,1.6-1.2
		s1.3,0.5,1.6,1.2L206.7,66.5z"/>
	<path class="st9" d="M233.9,72.9c-1,0-1.7-0.8-1.7-1.7V35c0-1,0.8-1.7,1.7-1.7s1.7,0.8,1.7,1.7v36.1
		C235.6,72.1,234.8,72.9,233.9,72.9z"/>
	<path class="st9" d="M261.8,72.9c-1,0-1.7-0.8-1.7-1.7V36.8h-12.5c-0.9,0-1.6-0.7-1.6-1.6s0.7-1.6,1.6-1.6h28.6
		c0.9,0,1.6,0.7,1.6,1.6s-0.7,1.6-1.6,1.6h-12.5v34.3C263.5,72.1,262.8,72.9,261.8,72.9z"/>
	<path class="st9" d="M287.7,35c0-1,0.8-1.7,1.7-1.7s1.7,0.8,1.7,1.7v16.1h23.5V35c0-1,0.8-1.7,1.7-1.7c1,0,1.7,0.8,1.7,1.7v36.1
		c0,1-0.8,1.7-1.7,1.7c-1,0-1.7-0.8-1.7-1.7V54.3h-23.5v16.8c0,1-0.8,1.7-1.7,1.7s-1.7-0.8-1.7-1.7V35z"/>
	<path class="st9" d="M335.9,72.9c-1,0-1.7-0.8-1.7-1.7V35c0-1,0.8-1.7,1.7-1.7c1,0,1.7,0.8,1.7,1.7v36.1
		C337.6,72.1,336.9,72.9,335.9,72.9z"/>
	<path class="st9" d="M382.9,72.9c-0.6,0-1-0.3-1.3-0.8L357,39.6v31.6c0,0.9-0.7,1.6-1.6,1.6c-1,0-1.7-0.8-1.7-1.6V34.9
		c0-1,0.7-1.7,1.7-1.7c0.6,0,1,0.3,1.3,0.8l24.6,32.5V34.9c0-1,0.7-1.7,1.7-1.7s1.6,0.8,1.6,1.7v36.3
		C384.5,72.1,384,72.9,382.9,72.9z"/>
</g>
</svg>
